<mxfile host="app.diagrams.net" modified="2024-04-11T19:21:52.739Z" agent="Mozilla/5.0 (Windows NT 10.0; Win64; x64) AppleWebKit/537.36 (KHTML, like Gecko) Chrome/123.0.0.0 Safari/537.36" etag="WvMiom1GuDEVtj7QOdbA" version="24.2.3" type="device">
  <diagram name="PÃ¡gina-1" id="WOvOrYiqp9-5kc7TKWI-">
    <mxGraphModel dx="1434" dy="738" grid="1" gridSize="10" guides="1" tooltips="1" connect="1" arrows="1" fold="1" page="1" pageScale="1" pageWidth="1654" pageHeight="2336" math="0" shadow="0">
      <root>
        <mxCell id="0" />
        <mxCell id="1" parent="0" />
        <mxCell id="gG6zSRcb8SfjiFYcq9HH-1" value="Pedro Pega a Cesta" style="rounded=1;whiteSpace=wrap;html=1;" vertex="1" parent="1">
          <mxGeometry x="600" y="40" width="120" height="40" as="geometry" />
        </mxCell>
        <mxCell id="gG6zSRcb8SfjiFYcq9HH-4" value="" style="endArrow=classic;html=1;rounded=0;exitX=0.5;exitY=1;exitDx=0;exitDy=0;" edge="1" parent="1" source="gG6zSRcb8SfjiFYcq9HH-1">
          <mxGeometry width="50" height="50" relative="1" as="geometry">
            <mxPoint x="700" y="410" as="sourcePoint" />
            <mxPoint x="660" y="130" as="targetPoint" />
          </mxGeometry>
        </mxCell>
        <mxCell id="gG6zSRcb8SfjiFYcq9HH-6" value="" style="endArrow=classic;html=1;rounded=0;exitX=0.5;exitY=1;exitDx=0;exitDy=0;" edge="1" parent="1" source="gG6zSRcb8SfjiFYcq9HH-29">
          <mxGeometry width="50" height="50" relative="1" as="geometry">
            <mxPoint x="660" y="170" as="sourcePoint" />
            <mxPoint x="660" y="220" as="targetPoint" />
          </mxGeometry>
        </mxCell>
        <mxCell id="gG6zSRcb8SfjiFYcq9HH-7" value="Quantas laranjas&lt;div&gt;&amp;nbsp;sobraram?&lt;div&gt;&lt;/div&gt;&lt;/div&gt;" style="rhombus;whiteSpace=wrap;html=1;fillColor=#ffe6cc;strokeColor=#d79b00;" vertex="1" parent="1">
          <mxGeometry x="580" y="300" width="160" height="110" as="geometry" />
        </mxCell>
        <mxCell id="gG6zSRcb8SfjiFYcq9HH-8" value="" style="endArrow=classic;html=1;rounded=0;exitX=0.5;exitY=1;exitDx=0;exitDy=0;" edge="1" parent="1">
          <mxGeometry width="50" height="50" relative="1" as="geometry">
            <mxPoint x="660" y="260" as="sourcePoint" />
            <mxPoint x="660" y="300" as="targetPoint" />
          </mxGeometry>
        </mxCell>
        <mxCell id="gG6zSRcb8SfjiFYcq9HH-11" value="&lt;div&gt;&lt;br&gt;&lt;/div&gt;senao se &amp;lt; 5&amp;nbsp;" style="rounded=0;whiteSpace=wrap;html=1;fillColor=#d80073;fontColor=#ffffff;strokeColor=#A50040;" vertex="1" parent="1">
          <mxGeometry x="800" y="507.5" width="120" height="52.5" as="geometry" />
        </mxCell>
        <mxCell id="gG6zSRcb8SfjiFYcq9HH-13" value="Se &amp;gt; 7&amp;nbsp;" style="rounded=0;whiteSpace=wrap;html=1;fillColor=#1ba1e2;fontColor=#ffffff;strokeColor=#006EAF;" vertex="1" parent="1">
          <mxGeometry x="360" y="337.5" width="120" height="35" as="geometry" />
        </mxCell>
        <mxCell id="gG6zSRcb8SfjiFYcq9HH-15" value="" style="endArrow=classic;html=1;rounded=0;exitX=1;exitY=0.5;exitDx=0;exitDy=0;fillColor=#f8cecc;strokeColor=#b85450;strokeWidth=5;" edge="1" parent="1">
          <mxGeometry width="50" height="50" relative="1" as="geometry">
            <mxPoint x="715" y="524.5" as="sourcePoint" />
            <mxPoint x="790" y="525" as="targetPoint" />
          </mxGeometry>
        </mxCell>
        <mxCell id="gG6zSRcb8SfjiFYcq9HH-43" value="False" style="edgeLabel;html=1;align=center;verticalAlign=middle;resizable=0;points=[];" vertex="1" connectable="0" parent="gG6zSRcb8SfjiFYcq9HH-15">
          <mxGeometry x="0.12" relative="1" as="geometry">
            <mxPoint as="offset" />
          </mxGeometry>
        </mxCell>
        <mxCell id="gG6zSRcb8SfjiFYcq9HH-16" value="" style="endArrow=classic;html=1;rounded=0;exitX=0.5;exitY=1;exitDx=0;exitDy=0;fillColor=#f8cecc;strokeColor=#b85450;strokeWidth=5;" edge="1" parent="1" source="gG6zSRcb8SfjiFYcq9HH-7">
          <mxGeometry width="50" height="50" relative="1" as="geometry">
            <mxPoint x="700" y="410" as="sourcePoint" />
            <mxPoint x="660" y="470" as="targetPoint" />
          </mxGeometry>
        </mxCell>
        <mxCell id="gG6zSRcb8SfjiFYcq9HH-41" value="False" style="edgeLabel;html=1;align=center;verticalAlign=middle;resizable=0;points=[];" vertex="1" connectable="0" parent="gG6zSRcb8SfjiFYcq9HH-16">
          <mxGeometry x="-0.0333" y="2" relative="1" as="geometry">
            <mxPoint as="offset" />
          </mxGeometry>
        </mxCell>
        <mxCell id="gG6zSRcb8SfjiFYcq9HH-17" value="" style="endArrow=classic;html=1;rounded=0;exitX=0;exitY=0.5;exitDx=0;exitDy=0;fillColor=#d5e8d4;strokeColor=#82b366;strokeWidth=5;" edge="1" parent="1" source="gG6zSRcb8SfjiFYcq9HH-7">
          <mxGeometry width="50" height="50" relative="1" as="geometry">
            <mxPoint x="700" y="410" as="sourcePoint" />
            <mxPoint x="490" y="355" as="targetPoint" />
          </mxGeometry>
        </mxCell>
        <mxCell id="gG6zSRcb8SfjiFYcq9HH-40" value="True" style="edgeLabel;html=1;align=center;verticalAlign=middle;resizable=0;points=[];" vertex="1" connectable="0" parent="gG6zSRcb8SfjiFYcq9HH-17">
          <mxGeometry x="0.1333" relative="1" as="geometry">
            <mxPoint as="offset" />
          </mxGeometry>
        </mxCell>
        <mxCell id="gG6zSRcb8SfjiFYcq9HH-19" value="Pedro volta para casa" style="rounded=1;whiteSpace=wrap;html=1;fillColor=#e3c800;fontColor=#000000;strokeColor=#B09500;" vertex="1" parent="1">
          <mxGeometry x="600" y="740" width="120" height="60" as="geometry" />
        </mxCell>
        <mxCell id="gG6zSRcb8SfjiFYcq9HH-20" value="" style="endArrow=classic;html=1;rounded=0;exitX=0.5;exitY=1;exitDx=0;exitDy=0;" edge="1" parent="1" source="gG6zSRcb8SfjiFYcq9HH-13">
          <mxGeometry width="50" height="50" relative="1" as="geometry">
            <mxPoint x="420" y="410" as="sourcePoint" />
            <mxPoint x="420" y="470" as="targetPoint" />
          </mxGeometry>
        </mxCell>
        <mxCell id="gG6zSRcb8SfjiFYcq9HH-21" value="" style="endArrow=classic;html=1;rounded=0;exitX=0.5;exitY=1;exitDx=0;exitDy=0;" edge="1" parent="1" source="gG6zSRcb8SfjiFYcq9HH-11">
          <mxGeometry width="50" height="50" relative="1" as="geometry">
            <mxPoint x="820" y="490" as="sourcePoint" />
            <mxPoint x="860" y="630" as="targetPoint" />
          </mxGeometry>
        </mxCell>
        <mxCell id="gG6zSRcb8SfjiFYcq9HH-26" value="" style="endArrow=classic;html=1;rounded=0;exitX=0.5;exitY=1;exitDx=0;exitDy=0;entryX=1;entryY=0.5;entryDx=0;entryDy=0;" edge="1" parent="1" source="gG6zSRcb8SfjiFYcq9HH-47" target="gG6zSRcb8SfjiFYcq9HH-19">
          <mxGeometry width="50" height="50" relative="1" as="geometry">
            <mxPoint x="860" y="670" as="sourcePoint" />
            <mxPoint x="890" y="620" as="targetPoint" />
            <Array as="points">
              <mxPoint x="860" y="770" />
            </Array>
          </mxGeometry>
        </mxCell>
        <mxCell id="gG6zSRcb8SfjiFYcq9HH-27" value="" style="endArrow=classic;html=1;rounded=0;entryX=0;entryY=0.5;entryDx=0;entryDy=0;" edge="1" parent="1" target="gG6zSRcb8SfjiFYcq9HH-19">
          <mxGeometry width="50" height="50" relative="1" as="geometry">
            <mxPoint x="420" y="530" as="sourcePoint" />
            <mxPoint x="420" y="560" as="targetPoint" />
            <Array as="points">
              <mxPoint x="420" y="770" />
            </Array>
          </mxGeometry>
        </mxCell>
        <mxCell id="gG6zSRcb8SfjiFYcq9HH-28" value="" style="endArrow=classic;html=1;rounded=0;entryX=0.5;entryY=0;entryDx=0;entryDy=0;exitX=0.5;exitY=1;exitDx=0;exitDy=0;" edge="1" parent="1" source="gG6zSRcb8SfjiFYcq9HH-46" target="gG6zSRcb8SfjiFYcq9HH-19">
          <mxGeometry width="50" height="50" relative="1" as="geometry">
            <mxPoint x="660" y="680" as="sourcePoint" />
            <mxPoint x="750" y="360" as="targetPoint" />
          </mxGeometry>
        </mxCell>
        <mxCell id="gG6zSRcb8SfjiFYcq9HH-30" value="" style="endArrow=classic;html=1;rounded=0;exitX=0.5;exitY=1;exitDx=0;exitDy=0;" edge="1" parent="1" target="gG6zSRcb8SfjiFYcq9HH-29">
          <mxGeometry width="50" height="50" relative="1" as="geometry">
            <mxPoint x="660" y="170" as="sourcePoint" />
            <mxPoint x="660" y="220" as="targetPoint" />
          </mxGeometry>
        </mxCell>
        <mxCell id="gG6zSRcb8SfjiFYcq9HH-29" value="&lt;div&gt;&lt;br&gt;&lt;/div&gt;&lt;div&gt;laranjas recebe&lt;/div&gt;&lt;div&gt;&amp;nbsp;input&lt;/div&gt;&lt;div&gt;&lt;br&gt;&lt;/div&gt;" style="shape=parallelogram;perimeter=parallelogramPerimeter;whiteSpace=wrap;html=1;fixedSize=1;fillColor=#dae8fc;strokeColor=#6c8ebf;" vertex="1" parent="1">
          <mxGeometry x="600" y="130" width="120" height="40" as="geometry" />
        </mxCell>
        <mxCell id="gG6zSRcb8SfjiFYcq9HH-31" value="Pedro adiciona&lt;div&gt;laranjas na cesta&lt;div&gt;&lt;br style=&quot;text-wrap: wrap;&quot;&gt;&lt;/div&gt;&lt;/div&gt;" style="text;html=1;align=center;verticalAlign=middle;resizable=0;points=[];autosize=1;strokeColor=none;fillColor=none;" vertex="1" parent="1">
          <mxGeometry x="490" y="120" width="110" height="60" as="geometry" />
        </mxCell>
        <mxCell id="gG6zSRcb8SfjiFYcq9HH-32" value="&lt;span style=&quot;text-wrap: wrap;&quot;&gt;Pedro perde laranjas&lt;/span&gt;" style="text;html=1;align=center;verticalAlign=middle;resizable=0;points=[];autosize=1;strokeColor=none;fillColor=none;" vertex="1" parent="1">
          <mxGeometry x="510" y="225" width="130" height="30" as="geometry" />
        </mxCell>
        <mxCell id="gG6zSRcb8SfjiFYcq9HH-33" value="perdidas&lt;div&gt;recebe input&lt;/div&gt;" style="shape=document;whiteSpace=wrap;html=1;boundedLbl=1;fillColor=#e6d0de;strokeColor=#996185;gradientColor=#d5739d;" vertex="1" parent="1">
          <mxGeometry x="600" y="220" width="120" height="40" as="geometry" />
        </mxCell>
        <mxCell id="gG6zSRcb8SfjiFYcq9HH-52" style="edgeStyle=orthogonalEdgeStyle;rounded=0;orthogonalLoop=1;jettySize=auto;html=1;fillColor=#d5e8d4;strokeColor=#82b366;strokeWidth=5;" edge="1" parent="1" source="gG6zSRcb8SfjiFYcq9HH-34">
          <mxGeometry relative="1" as="geometry">
            <mxPoint x="660" y="640" as="targetPoint" />
          </mxGeometry>
        </mxCell>
        <mxCell id="gG6zSRcb8SfjiFYcq9HH-55" value="True" style="edgeLabel;html=1;align=center;verticalAlign=middle;resizable=0;points=[];" vertex="1" connectable="0" parent="gG6zSRcb8SfjiFYcq9HH-52">
          <mxGeometry x="-0.3719" y="1" relative="1" as="geometry">
            <mxPoint as="offset" />
          </mxGeometry>
        </mxCell>
        <mxCell id="gG6zSRcb8SfjiFYcq9HH-34" value="senao &amp;lt; 7 e &amp;gt;= 5" style="rhombus;whiteSpace=wrap;html=1;fillColor=#ffe6cc;strokeColor=#d79b00;" vertex="1" parent="1">
          <mxGeometry x="605" y="470" width="110" height="110" as="geometry" />
        </mxCell>
        <mxCell id="gG6zSRcb8SfjiFYcq9HH-39" value="&lt;div&gt;&lt;br&gt;&lt;/div&gt;" style="text;html=1;align=center;verticalAlign=middle;resizable=0;points=[];autosize=1;strokeColor=none;fillColor=none;" vertex="1" parent="1">
          <mxGeometry x="842" y="512.5" width="20" height="30" as="geometry" />
        </mxCell>
        <mxCell id="gG6zSRcb8SfjiFYcq9HH-45" value="Pedro esta&amp;nbsp;&lt;div&gt;feliz&lt;/div&gt;" style="shape=document;whiteSpace=wrap;html=1;boundedLbl=1;fillColor=#60a917;fontColor=#ffffff;strokeColor=#2D7600;" vertex="1" parent="1">
          <mxGeometry x="360" y="480" width="120" height="50" as="geometry" />
        </mxCell>
        <mxCell id="gG6zSRcb8SfjiFYcq9HH-47" value="Pedro esta&amp;nbsp;&lt;div&gt;triste&lt;/div&gt;" style="shape=document;whiteSpace=wrap;html=1;boundedLbl=1;fillColor=#60a917;fontColor=#ffffff;strokeColor=#2D7600;" vertex="1" parent="1">
          <mxGeometry x="800" y="640" width="120" height="50" as="geometry" />
        </mxCell>
        <mxCell id="gG6zSRcb8SfjiFYcq9HH-49" value="" style="endArrow=classic;html=1;rounded=0;entryX=0.5;entryY=0;entryDx=0;entryDy=0;exitX=0.5;exitY=1;exitDx=0;exitDy=0;" edge="1" parent="1" target="gG6zSRcb8SfjiFYcq9HH-46">
          <mxGeometry width="50" height="50" relative="1" as="geometry">
            <mxPoint x="660" y="680" as="sourcePoint" />
            <mxPoint x="660" y="750" as="targetPoint" />
          </mxGeometry>
        </mxCell>
        <mxCell id="gG6zSRcb8SfjiFYcq9HH-46" value="Pedro esta&amp;nbsp;&lt;div&gt;com raiva&lt;/div&gt;" style="shape=document;whiteSpace=wrap;html=1;boundedLbl=1;fillColor=#60a917;fontColor=#ffffff;strokeColor=#2D7600;" vertex="1" parent="1">
          <mxGeometry x="600" y="650" width="120" height="50" as="geometry" />
        </mxCell>
        <mxCell id="gG6zSRcb8SfjiFYcq9HH-56" value="&lt;b&gt;&lt;font style=&quot;font-size: 17px; background-color: rgb(230, 208, 222);&quot; face=&quot;Times New Roman&quot;&gt;If&lt;/font&gt;&lt;/b&gt;" style="text;html=1;align=center;verticalAlign=middle;resizable=0;points=[];autosize=1;strokeColor=none;fillColor=none;" vertex="1" parent="1">
          <mxGeometry x="380" y="308" width="40" height="30" as="geometry" />
        </mxCell>
        <mxCell id="gG6zSRcb8SfjiFYcq9HH-59" value="&lt;div style=&quot;font-size: 17px;&quot;&gt;&lt;font face=&quot;Times New Roman&quot;&gt;&lt;span style=&quot;background-color: rgb(230, 208, 222);&quot;&gt;&lt;b&gt;else&lt;/b&gt;&lt;/span&gt;&lt;/font&gt;&lt;/div&gt;" style="text;html=1;align=center;verticalAlign=middle;resizable=0;points=[];autosize=1;strokeColor=none;fillColor=none;" vertex="1" parent="1">
          <mxGeometry x="935" y="518" width="50" height="30" as="geometry" />
        </mxCell>
        <mxCell id="gG6zSRcb8SfjiFYcq9HH-60" value="&lt;font size=&quot;1&quot; face=&quot;Times New Roman&quot;&gt;&lt;b style=&quot;font-size: 17px; background-color: rgb(230, 208, 222);&quot;&gt;elif&lt;/b&gt;&lt;/font&gt;" style="text;html=1;align=center;verticalAlign=middle;resizable=0;points=[];autosize=1;strokeColor=none;fillColor=none;" vertex="1" parent="1">
          <mxGeometry x="675" y="468" width="50" height="30" as="geometry" />
        </mxCell>
      </root>
    </mxGraphModel>
  </diagram>
</mxfile>
